<?xml version="1.0" encoding="UTF-8" standalone="no"?>
<svg xmlns:dc="http://purl.org/dc/elements/1.1/" xmlns:cc="http://creativecommons.org/ns#" xmlns:rdf="http://www.w3.org/1999/02/22-rdf-syntax-ns#" xmlns:svg="http://www.w3.org/2000/svg" xmlns="http://www.w3.org/2000/svg" xmlns:xlink="http://www.w3.org/1999/xlink" xmlns:sodipodi="http://sodipodi.sourceforge.net/DTD/sodipodi-0.dtd" xmlns:inkscape="http://www.inkscape.org/namespaces/inkscape" viewBox="0 0 787.20178 278.04258" version="1.1" id="svg54" sodipodi:docname="celix.svg" inkscape:version="0.92.3 (2405546, 2018-03-11)" width="787.20178" height="278.04257">
  <metadata id="metadata58">
    <rdf:RDF>
      <cc:Work rdf:about="">
        <dc:format>image/svg+xml</dc:format>
        <dc:type rdf:resource="http://purl.org/dc/dcmitype/StillImage"/>
        <dc:title>celix</dc:title>
      </cc:Work>
    </rdf:RDF>
  </metadata>
  <sodipodi:namedview pagecolor="#ffffff" bordercolor="#666666" borderopacity="1" objecttolerance="10" gridtolerance="10" guidetolerance="10" inkscape:pageopacity="0" inkscape:pageshadow="2" inkscape:window-width="1920" inkscape:window-height="1017" id="namedview56" showgrid="false" inkscape:zoom="1.2003396" inkscape:cx="487.94407" inkscape:cy="190.38006" inkscape:window-x="-8" inkscape:window-y="-8" inkscape:window-maximized="1" inkscape:current-layer="745bee40-f229-462a-927a-16f386dcc88e" fit-margin-top="0" fit-margin-left="0" fit-margin-right="0" fit-margin-bottom="0"/>
  <defs id="defs19">
    <linearGradient gradientUnits="userSpaceOnUse" y2="208.31" x2="131.25999" y1="208.31" x1="294.95999" id="linearGradient942">
      <stop id="stop928" stop-color="#013869" offset="0" style="stop-color:#46b6ee;stop-opacity:1"/>
      <stop id="stop940" stop-color="#28afe2" offset="1" style="stop-color:#023b6e;stop-opacity:1"/>
    </linearGradient>
    <linearGradient gradientUnits="userSpaceOnUse" y2="208.31" x2="131.25999" y1="208.31" x1="294.95999" id="82b819fe-8123-4299-ad9d-e1fba66fe067">
      <stop id="stop911" stop-color="#013869" offset="0"/>
      <stop id="stop913" stop-color="#095081" offset="0.1"/>
      <stop id="stop915" stop-color="#1472a4" offset="0.28"/>
      <stop id="stop917" stop-color="#1d8dbf" offset="0.45"/>
      <stop id="stop919" stop-color="#23a0d3" offset="0.63"/>
      <stop id="stop921" stop-color="#27abde" offset="0.81"/>
      <stop id="stop923" stop-color="#28afe2" offset="1"/>
    </linearGradient>
    <linearGradient id="82b819fe-8123-4299-ad9d-e1fba66fe067-1" x1="294.95999" y1="208.31" x2="131.25999" y2="208.31" gradientUnits="userSpaceOnUse">
      <stop offset="0" stop-color="#013869" id="stop2"/>
      <stop offset="0.1" stop-color="#095081" id="stop4"/>
      <stop offset="0.28" stop-color="#1472a4" id="stop6"/>
      <stop offset="0.45" stop-color="#1d8dbf" id="stop8"/>
      <stop offset="0.63" stop-color="#23a0d3" id="stop10"/>
      <stop offset="0.81" stop-color="#27abde" id="stop12"/>
      <stop offset="1" stop-color="#28afe2" id="stop14"/>
    </linearGradient>
    <linearGradient id="33e92ffa-e06e-430a-a651-abffcadb5c40" x1="58.512123" y1="279.64832" x2="66.010002" y2="121.1" xlink:href="#82b819fe-8123-4299-ad9d-e1fba66fe067-1" gradientTransform="translate(-10.107878,-10.249292)"/>
    <linearGradient id="a9af9cce-d912-4d92-a082-6fd2ed211a79" x1="148.81863" y1="40.869293" x2="188.8073" y2="132.09348" xlink:href="#linearGradient942"/>
    <linearGradient gradientTransform="translate(-86.832138,-7.295163)" id="33e92ffa-e06e-430a-a651-abffcadb5c40-3" x1="66.010002" y1="285.48001" x2="66.010002" y2="121.1" xlink:href="#82b819fe-8123-4299-ad9d-e1fba66fe067-1"/>
    <radialGradient inkscape:collect="always" xlink:href="#linearGradient942" id="radialGradient926" cx="-3.0632596" cy="209.48918" fx="-3.0632596" fy="209.48918" r="46.069466" gradientTransform="matrix(1.72357,0.59349082,-0.67741204,1.9672876,219.47747,-192.13543)" gradientUnits="userSpaceOnUse"/>
    <radialGradient inkscape:collect="always" xlink:href="#linearGradient942" id="radialGradient926-2" cx="-17.260033" cy="183.1729" fx="-17.260033" fy="183.1729" r="46.069466" gradientTransform="matrix(-3.1678917,-1.3803876,1.0379737,-2.3820765,-50.352754,516.08367)" gradientUnits="userSpaceOnUse"/>
    <linearGradient gradientTransform="translate(-2.609995,-7.75)" id="82b819fe-8123-4299-ad9d-e1fba66fe067-1-3" x1="294.95999" y1="208.31" x2="131.25999" y2="208.31" gradientUnits="userSpaceOnUse">
      <stop offset="0" stop-color="#013869" id="stop2-6"/>
      <stop offset="0.1" stop-color="#095081" id="stop4-0"/>
      <stop offset="0.28" stop-color="#1472a4" id="stop6-6"/>
      <stop offset="0.45" stop-color="#1d8dbf" id="stop8-2"/>
      <stop offset="0.63" stop-color="#23a0d3" id="stop10-6"/>
      <stop offset="0.81" stop-color="#27abde" id="stop12-1"/>
      <stop offset="1" stop-color="#28afe2" id="stop14-8"/>
    </linearGradient>
    <radialGradient inkscape:collect="always" xlink:href="#linearGradient942" id="radialGradient1031" cx="243.66321" cy="184.38518" fx="243.66321" fy="184.38518" r="78.919777" gradientTransform="matrix(0.58497884,-1.2547541,1.5006199,0.69960392,-172.47062,364.969)" gradientUnits="userSpaceOnUse"/>
    <linearGradient inkscape:collect="always" xlink:href="#82b819fe-8123-4299-ad9d-e1fba66fe067-1" id="linearGradient1060" gradientUnits="userSpaceOnUse" x1="273.29947" y1="209.55965" x2="131.25999" y2="208.31"/>
  </defs>
  <title id="title21">celix</title>
  <g id="745bee40-f229-462a-927a-16f386dcc88e" data-name="logo" transform="translate(7.5014166,0.00367791)">
    <path id="119c09b6-486e-4d19-bf49-3c1bd30b32c4" data-name="right" d="m 294.95,204.34 c 0.36,39.93 -31.7,76 -71,80.8 -44.12,5.37 -83.23,-23.09 -91.26,-66.81 -4.05,-22.08 0.87,-42.66 12.3,-61.76 3.06,-5.12 4.13,-5 7.54,0.14 8.87,13.39 13.85,28 13.69,44.19 -0.14,14.34 4.59,26.82 15,36.85 13.36,12.84 29.36,15.57 46.33,9.94 17.94,-5.95 28.88,-18.95 31.33,-37.9 2.58,-20 -4.73,-35.88 -21.9,-46.86 -2.57,-1.64 -2.95,-3.33 -1.14,-5.71 a 101.39,101.39 0 0 0 13.54,-23.83 c 1.17,-2.91 2.75,-3.21 5.4,-1.62 A 79.61,79.61 0 0 1 282,159.18 c 8.57,14.09 13.27,29.37 12.95,45.16 z" transform="translate(-2.61,-7.75)" style="fill:url(#linearGradient1060)" inkscape:connector-curvature="0"/>
    <path id="2121e319-b5ea-4f3e-b58f-78cc57c3b458" data-name="left" d="m 36.792122,120.4407 c 25.48,-13.24 52,-12.65 78.369998,1 5.11,2.65 5.23,3.44 1.74,8.31 a 109.17,109.17 0 0 0 -11.57,19.24 c -2.48,5.58 -3.16,5.84 -8.579998,2.8 -28.08,-15.75 -67,2.49 -68.71,40.3 -1.58,34.66 34.85,58.45 66.11,43.34 5.73,-2.77 5.67,-2.74 8.409998,2.94 a 174.49,174.49 0 0 0 11.83,21.38 c 2.17,3.25 1.49,5.18 -1.83,6.59 -30.189998,12.92 -59.569998,12.78 -86.669998,-7.31 -29.6600003,-22 -40.35,-57.65 -28.8900003,-92.62 5.89,-18.06 21.0000003,-35.74 39.7900003,-45.97 z" style="fill:url(#33e92ffa-e06e-430a-a651-abffcadb5c40)" inkscape:connector-curvature="0"/>
    <path id="d9e58f9a-f387-41cf-9b16-b98b77325f2c" data-name="top" d="M 230.47,91.26 C 230,120 216.92,143 192.34,159.74 c -4.76,3.24 -5.51,3 -8.14,-2.42 A 109.16,109.16 0 0 0 172.77,138 c -3.73,-4.83 -3.64,-5.55 1.61,-8.88 27.19,-17.23 29.62,-60.12 -2.83,-79.6 -29.78,-17.86 -68,2.93 -69.52,37.6 -0.28,6.36 -0.28,6.29 -6.58,6 A 174.49,174.49 0 0 0 71,93.37 c -3.89,0.37 -5.26,-1.15 -4.93,-4.74 3,-32.69 17.08,-58.48 47.63,-72.79 33.43,-15.66 69.9,-8.13 95.23,18.56 13.07,13.79 21.46,35.46 21.54,56.86 z" transform="translate(-2.61,-7.75)" style="fill:url(#a9af9cce-d912-4d92-a082-6fd2ed211a79);fill-opacity:1" inkscape:connector-curvature="0"/>
    <path style="fill:url(#radialGradient926);fill-opacity:1" d="m 93.232512,113.3735 a 87.266968,84.559402 0 0 0 -66.181645,81.97071 87.266968,84.559402 0 0 0 57.308596,79.30664 c 9.256669,-1.27164 18.636637,-4.03704 28.097647,-8.08594 3.32,-1.41 4.00008,-3.33984 1.83008,-6.58984 a 174.49,174.49 0 0 1 -11.83008,-21.37891 c -2.739997,-5.68 -2.680147,-5.71141 -8.410148,-2.94141 -31.26,15.11 -67.689376,-8.67984 -66.109376,-43.33984 1.71,-37.81 40.630937,-56.04883 68.710936,-40.29883 5.419998,3.04 6.098128,2.77922 8.578128,-2.80078 a 109.17,109.17 0 0 1 11.57031,-19.24023 c 3.49,-4.87 3.36976,-5.65861 -1.74024,-8.3086 -7.27197,-3.76421 -14.55439,-6.53125 -21.824208,-8.29297 z" id="2121e319-b5ea-4f3e-b58f-78cc57c3b458-9" inkscape:connector-curvature="0"/>
    <path style="fill:url(#radialGradient926-2);fill-opacity:1" d="M 207.3911,136.75891 A 84.559402,87.266968 28.346898 0 0 166.6732,39.592756 84.559402,87.266968 28.346898 0 0 69.665675,52.373935 c -3.275993,8.750478 -5.295886,18.31873 -6.224665,28.567709 -0.335439,3.591382 1.040084,5.106211 4.930709,4.739551 a 174.49,174.49 0 0 1 24.432369,-0.260636 c 6.299889,0.28547 6.299105,0.35306 6.581914,-6.005074 1.544378,-34.685941 39.778538,-55.451411 69.532238,-37.604 32.46424,19.457466 30.03603,62.371315 2.842,79.605985 -5.24893,3.32666 -5.34142,4.0473 -1.60804,8.87935 a 109.17,109.17 0 0 1 11.43943,19.31833 c 2.62894,5.38383 3.38008,5.65245 8.13859,2.41344 6.76563,-4.61271 12.65862,-9.70808 17.66088,-15.26968 z" id="2121e319-b5ea-4f3e-b58f-78cc57c3b458-9-9" inkscape:connector-curvature="0"/>
    <path style="opacity:1;fill:url(#radialGradient1031);fill-opacity:1;stroke:none;stroke-width:0.70791149;stroke-linecap:round;stroke-linejoin:bevel;stroke-miterlimit:4;stroke-dasharray:none;stroke-opacity:0.67529411" d="m 249.60547,123.06641 c -1.2127,-0.0445 -2.10469,0.75547 -2.83594,2.57421 a 101.39,101.39 0 0 1 -13.53906,23.83008 c -1.81,2.38 -1.43133,4.06899 1.13867,5.70899 17.17,10.98 24.48039,26.85937 21.90039,46.85937 -2.45,18.95 -13.39009,31.95039 -31.33008,37.90039 -5.14675,1.7075 -10.20328,2.64098 -15.125,2.76172 a 86.017326,86.017326 0 0 0 10.33203,0.69336 86.017326,86.017326 0 0 0 71.82032,-38.80078 c 0.26209,-2.64551 0.39729,-5.31501 0.37304,-8.00391 0.32,-15.79 -4.37922,-31.07015 -12.94922,-45.16015 a 79.61,79.61 0 0 0 -27.2207,-27.41016 c -0.99375,-0.59625 -1.83683,-0.9264 -2.56445,-0.95312 z m -103.58594,21.97656 c -1.07625,-0.0325 -2.10867,1.21734 -3.63867,3.77734 -3.13479,5.23836 -5.76054,10.59132 -7.86524,16.05274 a 86.017326,86.017326 0 0 0 53.25977,72.14257 c -3.17091,-1.86313 -6.23206,-4.19586 -9.16601,-7.01562 -10.41,-10.03 -15.14,-22.50961 -15,-36.84961 0.15999,-16.19 -4.81946,-30.79945 -13.68946,-44.18945 -1.705,-2.57 -2.82414,-3.88547 -3.90039,-3.91797 z" id="path981" inkscape:connector-curvature="0"/>
  </g>
  <g id="c1fd43b4-da54-40d0-99f3-349b232c9c52" data-name="tekst" transform="translate(7.5014166,0.00367791)">
    <path d="m 386.74,75.27 a 13.29,13.29 0 0 1 0.57,2.17 1.31,1.31 0 0 1 -0.3,1.2 2.48,2.48 0 0 1 -1.49,0.5 q -1.07,0.09 -2.93,0.1 -1.86,0.01 -3,-0.06 a 7.48,7.48 0 0 1 -1.66,-0.23 1.51,1.51 0 0 1 -0.8,-0.48 2.6,2.6 0 0 1 -0.38,-0.8 l -3.31,-9.9 H 354.9 l -3.12,9.64 a 3.07,3.07 0 0 1 -0.4,0.9 1.63,1.63 0 0 1 -0.8,0.57 5.87,5.87 0 0 1 -1.56,0.29 q -1,0.08 -2.65,0.08 a 25.35,25.35 0 0 1 -2.74,-0.11 2.09,2.09 0 0 1 -1.37,-0.55 1.49,1.49 0 0 1 -0.27,-1.24 12.42,12.42 0 0 1 0.57,-2.13 l 15.2,-43.72 a 3.82,3.82 0 0 1 0.53,-1 1.89,1.89 0 0 1 1,-0.61 7.68,7.68 0 0 1 1.85,-0.27 q 1.18,-0.06 3.12,-0.06 2.25,0 3.58,0.06 a 9.56,9.56 0 0 1 2.08,0.27 2,2 0 0 1 1.07,0.63 3.71,3.71 0 0 1 0.55,1.14 z M 364.12,39.12 v 0 l -7,20.95 h 14 z" transform="translate(-2.61,-7.75)" style="fill:#aeaeae" id="path27" inkscape:connector-curvature="0"/>
    <path d="m 427.38,44.68 a 19.47,19.47 0 0 1 -1.3,7.32 14.18,14.18 0 0 1 -3.77,5.39 16.62,16.62 0 0 1 -6.07,3.33 28.11,28.11 0 0 1 -8.47,1.14 h -4.11 v 15.77 a 1.06,1.06 0 0 1 -0.25,0.69 1.73,1.73 0 0 1 -0.82,0.5 8,8 0 0 1 -1.52,0.3 25.85,25.85 0 0 1 -4.86,0 8,8 0 0 1 -1.54,-0.3 1.6,1.6 0 0 1 -0.8,-0.5 1.11,1.11 0 0 1 -0.23,-0.69 V 33.3 a 3.56,3.56 0 0 1 0.93,-2.69 3.4,3.4 0 0 1 2.46,-0.9 h 11.62 q 1.75,0 3.33,0.13 a 35.41,35.41 0 0 1 3.79,0.57 16.76,16.76 0 0 1 4.47,1.59 13.32,13.32 0 0 1 3.87,3 12.47,12.47 0 0 1 2.44,4.23 16.51,16.51 0 0 1 0.83,5.45 z m -10.47,0.72 a 8.85,8.85 0 0 0 -0.91,-4.27 6.31,6.31 0 0 0 -2.25,-2.48 7.45,7.45 0 0 0 -2.8,-1 21.46,21.46 0 0 0 -3,-0.21 h -4.27 v 16.73 h 4.49 a 10.86,10.86 0 0 0 4,-0.65 6.87,6.87 0 0 0 2.65,-1.81 7.83,7.83 0 0 0 1.56,-2.78 11.2,11.2 0 0 0 0.53,-3.52 z" transform="translate(-2.61,-7.75)" style="fill:#aeaeae" id="path29" inkscape:connector-curvature="0"/>
    <path d="m 470.23,75.27 a 13.29,13.29 0 0 1 0.57,2.17 1.31,1.31 0 0 1 -0.3,1.2 2.48,2.48 0 0 1 -1.49,0.5 q -1.07,0.09 -2.93,0.1 -1.86,0.01 -3,-0.06 a 7.48,7.48 0 0 1 -1.66,-0.23 1.51,1.51 0 0 1 -0.8,-0.48 2.61,2.61 0 0 1 -0.38,-0.8 l -3.31,-9.9 h -18.54 l -3.12,9.64 a 3.09,3.09 0 0 1 -0.4,0.9 1.63,1.63 0 0 1 -0.8,0.57 5.87,5.87 0 0 1 -1.56,0.29 q -1,0.08 -2.65,0.08 a 25.35,25.35 0 0 1 -2.74,-0.11 2.09,2.09 0 0 1 -1.37,-0.55 1.49,1.49 0 0 1 -0.27,-1.24 12.42,12.42 0 0 1 0.57,-2.13 l 15.2,-43.72 a 3.83,3.83 0 0 1 0.53,-1 1.89,1.89 0 0 1 1,-0.61 7.69,7.69 0 0 1 1.85,-0.27 q 1.18,-0.06 3.12,-0.06 2.25,0 3.58,0.06 a 9.57,9.57 0 0 1 2.08,0.27 2,2 0 0 1 1.07,0.63 3.72,3.72 0 0 1 0.55,1.14 z M 447.6,39.12 v 0 l -7,20.95 h 14 z" transform="translate(-2.61,-7.75)" style="fill:#aeaeae" id="path31" inkscape:connector-curvature="0"/>
    <path d="m 510.29,71.54 q 0,1 -0.06,1.62 a 8,8 0 0 1 -0.17,1.14 3.24,3.24 0 0 1 -0.3,0.82 4,4 0 0 1 -0.61,0.78 7.72,7.72 0 0 1 -1.62,1.1 19,19 0 0 1 -2.93,1.31 25.59,25.59 0 0 1 -4,1 26.1,26.1 0 0 1 -4.82,0.42 25.38,25.38 0 0 1 -9.14,-1.56 18,18 0 0 1 -6.93,-4.67 20.85,20.85 0 0 1 -4.38,-7.75 34.76,34.76 0 0 1 -1.49,-10.75 34.26,34.26 0 0 1 1.68,-11.16 23.24,23.24 0 0 1 4.68,-8.19 19.61,19.61 0 0 1 7.22,-5 24.37,24.37 0 0 1 9.27,-1.71 22.32,22.32 0 0 1 4,0.34 24.23,24.23 0 0 1 3.52,0.9 17.69,17.69 0 0 1 2.91,1.28 8.69,8.69 0 0 1 1.81,1.24 4.25,4.25 0 0 1 0.71,0.86 3.19,3.19 0 0 1 0.3,0.88 9.92,9.92 0 0 1 0.17,1.26 q 0.06,0.72 0.06,1.79 0,1.07 -0.08,1.94 a 5,5 0 0 1 -0.27,1.29 1.78,1.78 0 0 1 -0.46,0.72 0.91,0.91 0 0 1 -0.61,0.23 A 2.64,2.64 0 0 1 507.3,41 23.78,23.78 0 0 0 505,39.49 18.46,18.46 0 0 0 501.7,38 14.08,14.08 0 0 0 497.11,37.33 10.85,10.85 0 0 0 488,42 a 16.09,16.09 0 0 0 -2.46,5.39 27.83,27.83 0 0 0 -0.84,7.12 27.92,27.92 0 0 0 0.9,7.52 14.52,14.52 0 0 0 2.55,5.24 10.32,10.32 0 0 0 4,3.07 13.2,13.2 0 0 0 5.27,1 15,15 0 0 0 4.61,-0.63 19.34,19.34 0 0 0 3.33,-1.39 q 1.39,-0.76 2.29,-1.37 a 2.84,2.84 0 0 1 1.39,-0.61 1.09,1.09 0 0 1 0.61,0.15 1.15,1.15 0 0 1 0.38,0.61 6,6 0 0 1 0.23,1.28 q 0.03,0.78 0.03,2.16 z" transform="translate(-2.61,-7.75)" style="fill:#aeaeae" id="path33" inkscape:connector-curvature="0"/>
    <path d="m 556,77.63 a 1.06,1.06 0 0 1 -0.25,0.69 1.74,1.74 0 0 1 -0.82,0.5 8,8 0 0 1 -1.52,0.3 20.76,20.76 0 0 1 -2.4,0.11 21.71,21.71 0 0 1 -2.46,-0.11 7.57,7.57 0 0 1 -1.52,-0.3 1.72,1.72 0 0 1 -0.8,-0.5 1.05,1.05 0 0 1 -0.25,-0.69 V 57.71 h -18.47 v 19.92 a 1.11,1.11 0 0 1 -0.23,0.69 1.6,1.6 0 0 1 -0.8,0.5 8,8 0 0 1 -1.52,0.3 25.86,25.86 0 0 1 -4.86,0 8,8 0 0 1 -1.54,-0.3 1.74,1.74 0 0 1 -0.82,-0.5 1.06,1.06 0 0 1 -0.25,-0.69 V 31.09 a 1.06,1.06 0 0 1 0.25,-0.69 1.74,1.74 0 0 1 0.82,-0.5 8,8 0 0 1 1.54,-0.3 25.86,25.86 0 0 1 4.86,0 8,8 0 0 1 1.52,0.3 1.61,1.61 0 0 1 0.8,0.5 1.12,1.12 0 0 1 0.23,0.69 v 18.09 h 18.43 V 31.09 a 1.06,1.06 0 0 1 0.25,-0.69 1.73,1.73 0 0 1 0.8,-0.5 7.6,7.6 0 0 1 1.52,-0.3 21.71,21.71 0 0 1 2.46,-0.11 20.76,20.76 0 0 1 2.4,0.11 8,8 0 0 1 1.52,0.3 1.75,1.75 0 0 1 0.82,0.5 1.07,1.07 0 0 1 0.25,0.69 z" transform="translate(-2.61,-7.75)" style="fill:#aeaeae" id="path35" inkscape:connector-curvature="0"/>
    <path d="m 595.91,75.08 a 14.9,14.9 0 0 1 -0.1,1.85 4.76,4.76 0 0 1 -0.29,1.2 1.52,1.52 0 0 1 -0.48,0.67 1,1 0 0 1 -0.63,0.21 h -24.74 a 3.12,3.12 0 0 1 -2.11,-0.74 3,3 0 0 1 -0.86,-2.42 v -43 a 3,3 0 0 1 0.86,-2.42 3.12,3.12 0 0 1 2.11,-0.74 h 24.6 a 1,1 0 0 1 0.61,0.19 1.47,1.47 0 0 1 0.46,0.67 5.13,5.13 0 0 1 0.29,1.22 15.51,15.51 0 0 1 0.09,1.89 14.74,14.74 0 0 1 -0.09,1.81 4.8,4.8 0 0 1 -0.29,1.2 1.62,1.62 0 0 1 -0.46,0.67 1,1 0 0 1 -0.61,0.21 h -17.6 v 12 h 14.89 a 1,1 0 0 1 0.63,0.21 1.55,1.55 0 0 1 0.48,0.65 4.49,4.49 0 0 1 0.29,1.18 17.5,17.5 0 0 1 0,3.64 4.46,4.46 0 0 1 -0.29,1.16 1.4,1.4 0 0 1 -0.48,0.63 1.11,1.11 0 0 1 -0.63,0.19 h -14.88 v 13.9 h 17.75 a 1,1 0 0 1 0.63,0.21 1.52,1.52 0 0 1 0.48,0.67 4.76,4.76 0 0 1 0.29,1.2 14.91,14.91 0 0 1 0.08,1.89 z" transform="translate(-2.61,-7.75)" style="fill:#aeaeae" id="path37" inkscape:connector-curvature="0"/>
    <path d="m 427.36,156.6 -10.14,17.71 q -8.34,-7.86 -22.36,-7.86 -13.45,0 -21.27,9 -7.82,9 -7.82,24.77 0,31.92 30.41,31.92 a 34.35,34.35 0 0 0 23.21,-8.71 l 8.73,18.57 q -10.33,6.44 -18,8.15 a 85.47,85.47 0 0 1 -18.23,1.71 q -23.49,0 -37.09,-13.69 -13.6,-13.69 -13.59,-38 0,-24 14.87,-38.74 14.87,-14.74 40.54,-14.78 17.67,0 30.74,9.95 z" transform="translate(-2.61,-7.75)" id="path39" inkscape:connector-curvature="0"/>
    <path d="m 537.62,206.52 h -72.47 q 0.66,12.13 8.34,18.85 7.68,6.72 20.65,6.73 16.2,0 24.63,-8.43 l 9.23,18.09 q -12.5,10.14 -37.32,10.14 -23.21,0 -36.71,-13.59 -13.5,-13.59 -13.5,-37.94 0,-24 14.83,-38.84 a 48.44,48.44 0 0 1 35.57,-14.87 q 22.07,0 35.43,13.17 13.36,13.17 13.36,33.53 a 66.15,66.15 0 0 1 -2.04,13.16 z M 466,188.71 h 49.83 q -2.46,-22.26 -24.63,-22.26 -20.27,0 -25.2,22.26 z" transform="translate(-2.61,-7.75)" id="path41" inkscape:connector-curvature="0"/>
    <path d="m 562.63,110.75 23.68,-5.68 v 114.05 q 0,18.76 11.18,22.36 -5.49,10.42 -18.76,10.41 -16.1,0 -16.1,-22.36 z" transform="translate(-2.61,-7.75)" id="path43" inkscape:connector-curvature="0"/>
    <path d="m 622.12,250 v -82 h -13 v -19.45 h 36.94 V 250 Z m 12.22,-140.76 a 13.74,13.74 0 1 1 -9.71,4 13.24,13.24 0 0 1 9.71,-4 z" transform="translate(-2.61,-7.75)" id="path45" inkscape:connector-curvature="0"/>
    <path d="m 738.82,250 -26,-33.06 -23.45,33.06 h -28 l 38.93,-51.91 -35.81,-49.54 h 27.19 l 21.41,31 23.87,-31 h 27 L 725,198.09 767.52,250 Z" transform="translate(-2.61,-7.75)" id="path47" inkscape:connector-curvature="0"/>
    <path d="m 754.28,114.55 a 4.16,4.16 0 0 1 0,0.58 1.22,1.22 0 0 1 -0.11,0.4 0.55,0.55 0 0 1 -0.19,0.22 0.48,0.48 0 0 1 -0.25,0.07 h -6.4 v 19.72 a 0.43,0.43 0 0 1 -0.07,0.25 0.47,0.47 0 0 1 -0.25,0.17 2.66,2.66 0 0 1 -0.47,0.11 6,6 0 0 1 -1.45,0 2.66,2.66 0 0 1 -0.47,-0.11 0.47,0.47 0 0 1 -0.25,-0.17 0.43,0.43 0 0 1 -0.07,-0.25 v -19.72 h -6.4 a 0.48,0.48 0 0 1 -0.25,-0.07 0.5,0.5 0 0 1 -0.18,-0.22 1.61,1.61 0 0 1 -0.11,-0.4 3.34,3.34 0 0 1 0,-0.58 3.5,3.5 0 0 1 0,-0.59 1.78,1.78 0 0 1 0.11,-0.41 0.49,0.49 0 0 1 0.18,-0.23 0.48,0.48 0 0 1 0.25,-0.07 h 15.82 a 0.48,0.48 0 0 1 0.25,0.07 0.54,0.54 0 0 1 0.19,0.23 1.34,1.34 0 0 1 0.11,0.41 4.36,4.36 0 0 1 0.01,0.59 z" transform="translate(-2.61,-7.75)" id="path49" inkscape:connector-curvature="0"/>
    <path d="m 782.3,135.54 a 0.43,0.43 0 0 1 -0.07,0.25 0.49,0.49 0 0 1 -0.25,0.17 2.83,2.83 0 0 1 -0.46,0.11 4.91,4.91 0 0 1 -0.73,0 5,5 0 0 1 -0.72,0 2.57,2.57 0 0 1 -0.47,-0.11 0.48,0.48 0 0 1 -0.24,-0.17 0.42,0.42 0 0 1 -0.07,-0.25 v -19.81 0 l -8,19.9 a 0.6,0.6 0 0 1 -0.15,0.21 0.79,0.79 0 0 1 -0.28,0.15 2.08,2.08 0 0 1 -0.44,0.09 6,6 0 0 1 -0.61,0 4.88,4.88 0 0 1 -0.63,0 2.26,2.26 0 0 1 -0.44,-0.1 0.79,0.79 0 0 1 -0.27,-0.15 0.46,0.46 0 0 1 -0.13,-0.19 l -7.66,-19.9 v 0 19.81 a 0.43,0.43 0 0 1 -0.07,0.25 0.49,0.49 0 0 1 -0.25,0.17 2.82,2.82 0 0 1 -0.47,0.11 5.12,5.12 0 0 1 -0.74,0 5,5 0 0 1 -0.72,0 2.55,2.55 0 0 1 -0.46,-0.11 0.43,0.43 0 0 1 -0.24,-0.17 0.46,0.46 0 0 1 -0.06,-0.25 v -20.92 a 1.28,1.28 0 0 1 0.39,-1.05 1.36,1.36 0 0 1 0.88,-0.32 h 1.86 a 4.21,4.21 0 0 1 1,0.11 2.18,2.18 0 0 1 0.75,0.33 1.94,1.94 0 0 1 0.54,0.58 4.16,4.16 0 0 1 0.38,0.83 l 6.5,16.47 h 0.09 l 6.77,-16.42 a 4.87,4.87 0 0 1 0.43,-0.9 2.3,2.3 0 0 1 0.51,-0.59 1.75,1.75 0 0 1 0.62,-0.32 2.88,2.88 0 0 1 0.79,-0.1 H 781 a 1.62,1.62 0 0 1 0.51,0.08 1,1 0 0 1 0.41,0.25 1.27,1.27 0 0 1 0.28,0.42 1.61,1.61 0 0 1 0.11,0.62 z" transform="translate(-2.61,-7.75)" id="path51" inkscape:connector-curvature="0"/>
  </g>
</svg>