<?xml version="1.0" encoding="utf-8"?>
<!-- Generator: Adobe Illustrator 21.1.0, SVG Export Plug-In . SVG Version: 6.00 Build 0)  -->
<svg version="1.1"
	 id="svg54" inkscape:version="0.92.3 (2405546, 2018-03-11)" sodipodi:docname="celix.svg" xmlns:cc="http://creativecommons.org/ns#" xmlns:dc="http://purl.org/dc/elements/1.1/" xmlns:inkscape="http://www.inkscape.org/namespaces/inkscape" xmlns:rdf="http://www.w3.org/1999/02/22-rdf-syntax-ns#" xmlns:sodipodi="http://sodipodi.sourceforge.net/DTD/sodipodi-0.dtd" xmlns:svg="http://www.w3.org/2000/svg"
	 xmlns="http://www.w3.org/2000/svg" xmlns:xlink="http://www.w3.org/1999/xlink" x="0px" y="0px" viewBox="0 0 787.2 278"
	 style="enable-background:new 0 0 787.2 278;" xml:space="preserve">
<style type="text/css">
	.st0{fill:#FFFFFF;}
</style>
<sodipodi:namedview  bordercolor="#666666" borderopacity="1" fit-margin-bottom="0" fit-margin-left="0" fit-margin-right="0" fit-margin-top="0" gridtolerance="10" guidetolerance="10" id="namedview56" inkscape:current-layer="745bee40-f229-462a-927a-16f386dcc88e" inkscape:cx="487.94407" inkscape:cy="190.38006" inkscape:pageopacity="0" inkscape:pageshadow="2" inkscape:window-height="1017" inkscape:window-maximized="1" inkscape:window-width="1920" inkscape:window-x="-8" inkscape:window-y="-8" inkscape:zoom="1.2003396" objecttolerance="10" pagecolor="#ffffff" showgrid="false">
	</sodipodi:namedview>
<title  id="title21">celix</title>
<g id="_x37_45bee40-f229-462a-927a-16f386dcc88e" transform="translate(7.5014166,0.00367791)">
	<path id="_x31_19c09b6-486e-4d19-bf49-3c1bd30b32c4" inkscape:connector-curvature="0" class="st0" d="M292.3,196.6
		c0.4,39.9-31.7,76-71,80.8c-44.1,5.4-83.2-23.1-91.3-66.8c-4.1-22.1,0.9-42.7,12.3-61.8c3.1-5.1,4.1-5,7.5,0.1
		c8.9,13.4,13.9,28,13.7,44.2c-0.1,14.3,4.6,26.8,15,36.9c13.4,12.8,29.4,15.6,46.3,9.9c17.9-5.9,28.9-18.9,31.3-37.9
		c2.6-20-4.7-35.9-21.9-46.9c-2.6-1.6-2.9-3.3-1.1-5.7c5.6-7.3,10.1-15.3,13.5-23.8c1.2-2.9,2.8-3.2,5.4-1.6
		c11.2,6.8,20.5,16.2,27.2,27.4C288,165.5,292.7,180.8,292.3,196.6z"/>
	<path id="_x32_121e319-b5ea-4f3e-b58f-78cc57c3b458" inkscape:connector-curvature="0" class="st0" d="M36.8,120.4
		c25.5-13.2,52-12.7,78.4,1c5.1,2.7,5.2,3.4,1.7,8.3c-4.5,6-8.4,12.4-11.6,19.2c-2.5,5.6-3.2,5.8-8.6,2.8
		c-28.1-15.8-67,2.5-68.7,40.3c-1.6,34.7,34.8,58.4,66.1,43.3c5.7-2.8,5.7-2.7,8.4,2.9c3.4,7.4,7.4,14.5,11.8,21.4
		c2.2,3.3,1.5,5.2-1.8,6.6C82.4,279.3,53,279.1,25.9,259C-3.8,237-14.5,201.4-3,166.4C2.9,148.4,18,130.7,36.8,120.4z"/>
	<path id="d9e58f9a-f387-41cf-9b16-b98b77325f2c" inkscape:connector-curvature="0" class="st0" d="M227.9,83.5
		c-0.5,28.7-13.6,51.7-38.1,68.5c-4.8,3.2-5.5,3-8.1-2.4c-3.1-6.8-7-13.3-11.4-19.3c-3.7-4.8-3.6-5.6,1.6-8.9
		c27.2-17.2,29.6-60.1-2.8-79.6c-29.8-17.9-68,2.9-69.5,37.6c-0.3,6.4-0.3,6.3-6.6,6c-8.1-0.5-16.3-0.4-24.5,0.3
		c-3.9,0.4-5.3-1.2-4.9-4.7c3-32.7,17.1-58.5,47.6-72.8C144.5-7.6,181,0,206.3,26.7C219.4,40.4,227.8,62.1,227.9,83.5z"/>
	<path id="_x32_121e319-b5ea-4f3e-b58f-78cc57c3b458-9" inkscape:connector-curvature="0" class="st0" d="M93.2,113.4
		c-38.9,9.4-66.1,43.2-66.2,82c0,35.5,22.9,67.1,57.3,79.3c9.3-1.3,18.6-4,28.1-8.1c3.3-1.4,4-3.3,1.8-6.6
		c-4.4-6.8-8.4-14-11.8-21.4c-2.7-5.7-2.7-5.7-8.4-2.9c-31.3,15.1-67.7-8.7-66.1-43.3c1.7-37.8,40.6-56,68.7-40.3
		c5.4,3,6.1,2.8,8.6-2.8c3.2-6.8,7.1-13.2,11.6-19.2c3.5-4.9,3.4-5.7-1.7-8.3C107.8,117.9,100.5,115.1,93.2,113.4z"/>
	<path id="_x32_121e319-b5ea-4f3e-b58f-78cc57c3b458-9-9" inkscape:connector-curvature="0" class="st0" d="M207.4,136.8
		c10.2-38.6-6.6-78.7-40.7-97.2c-31.2-16.8-70-11.7-97,12.8c-3.3,8.8-5.3,18.3-6.2,28.6c-0.3,3.6,1,5.1,4.9,4.7
		c8.1-0.7,16.3-0.7,24.4-0.3c6.3,0.3,6.3,0.4,6.6-6c1.5-34.7,39.8-55.5,69.5-37.6c32.5,19.5,30,62.4,2.8,79.6
		c-5.2,3.3-5.3,4-1.6,8.9c4.5,6,8.3,12.5,11.4,19.3c2.6,5.4,3.4,5.7,8.1,2.4C196.5,147.4,202.4,142.3,207.4,136.8L207.4,136.8z"/>
	<path id="path981" inkscape:connector-curvature="0" class="st0" d="M249.6,123.1c-1.2,0-2.1,0.8-2.8,2.6
		c-3.4,8.5-8,16.5-13.5,23.8c-1.8,2.4-1.4,4.1,1.1,5.7c17.2,11,24.5,26.9,21.9,46.9c-2.4,18.9-13.4,32-31.3,37.9
		c-5.1,1.7-10.2,2.6-15.1,2.8c3.4,0.4,6.9,0.7,10.3,0.7c28.9,0,55.9-14.6,71.8-38.8c0.3-2.6,0.4-5.3,0.4-8
		c0.3-15.8-4.4-31.1-12.9-45.2c-6.7-11.2-16-20.6-27.2-27.4C251.2,123.4,250.3,123.1,249.6,123.1z M146,145c-1.1,0-2.1,1.2-3.6,3.8
		c-3.1,5.2-5.8,10.6-7.9,16.1c2.8,32.1,23.4,60,53.3,72.1c-3.2-1.9-6.2-4.2-9.2-7c-10.4-10-15.1-22.5-15-36.8
		c0.2-16.2-4.8-30.8-13.7-44.2C148.2,146.4,147.1,145.1,146,145z"/>
</g>
<g id="c1fd43b4-da54-40d0-99f3-349b232c9c52" transform="translate(7.5014166,0.00367791)">
	<path id="path27" inkscape:connector-curvature="0" class="st0" d="M384.1,67.5c0.3,0.7,0.4,1.4,0.6,2.2c0.1,0.4,0,0.9-0.3,1.2
		c-0.4,0.3-1,0.5-1.5,0.5c-0.7,0.1-1.7,0.1-2.9,0.1c-1.2,0-2.2,0-3-0.1c-0.6,0-1.1-0.1-1.7-0.2c-0.3-0.1-0.6-0.2-0.8-0.5
		c-0.2-0.2-0.3-0.5-0.4-0.8l-3.3-9.9h-18.5l-3.1,9.6c-0.1,0.3-0.2,0.6-0.4,0.9c-0.2,0.3-0.5,0.5-0.8,0.6c-0.5,0.2-1,0.3-1.6,0.3
		c-0.7,0.1-1.6,0.1-2.6,0.1c-0.9,0-1.8,0-2.7-0.1c-0.5,0-1-0.2-1.4-0.6c-0.3-0.4-0.4-0.8-0.3-1.2c0.1-0.7,0.3-1.4,0.6-2.1l15.2-43.7
		c0.1-0.4,0.3-0.7,0.5-1c0.3-0.3,0.6-0.5,1-0.6c0.6-0.2,1.2-0.3,1.9-0.3c0.8,0,1.8-0.1,3.1-0.1c1.5,0,2.7,0,3.6,0.1
		c0.7,0,1.4,0.1,2.1,0.3c0.4,0.1,0.8,0.3,1.1,0.6c0.2,0.3,0.4,0.7,0.5,1.1L384.1,67.5z M361.5,31.4L361.5,31.4l-7,21h14L361.5,31.4z
		"/>
	<path id="path29" inkscape:connector-curvature="0" class="st0" d="M424.8,36.9c0,2.5-0.4,5-1.3,7.3c-0.8,2.1-2.1,3.9-3.8,5.4
		c-1.8,1.5-3.8,2.7-6.1,3.3c-2.7,0.8-5.6,1.2-8.5,1.1h-4.1v15.8c0,0.3-0.1,0.5-0.3,0.7c-0.2,0.2-0.5,0.4-0.8,0.5
		c-0.5,0.1-1,0.2-1.5,0.3c-1.6,0.2-3.2,0.2-4.9,0c-0.5,0-1-0.1-1.5-0.3c-0.3-0.1-0.6-0.3-0.8-0.5c-0.2-0.2-0.2-0.4-0.2-0.7V25.5
		c-0.1-1,0.3-2,0.9-2.7c0.7-0.6,1.6-0.9,2.5-0.9H406c1.2,0,2.3,0,3.3,0.1c1.3,0.1,2.5,0.3,3.8,0.6c1.6,0.3,3.1,0.9,4.5,1.6
		c1.5,0.8,2.8,1.8,3.9,3c1.1,1.2,1.9,2.7,2.4,4.2C424.5,33.2,424.8,35.1,424.8,36.9z M414.3,37.7c0.1-1.5-0.3-2.9-0.9-4.3
		c-0.5-1-1.3-1.9-2.3-2.5c-0.9-0.5-1.8-0.9-2.8-1c-1-0.1-2-0.2-3-0.2h-4.3v16.7h4.5c1.4,0,2.7-0.2,4-0.7c1-0.4,1.9-1,2.6-1.8
		c0.7-0.8,1.2-1.8,1.6-2.8C414.1,40,414.3,38.9,414.3,37.7L414.3,37.7z"/>
	<path id="path31" inkscape:connector-curvature="0" class="st0" d="M467.6,67.5c0.3,0.7,0.4,1.4,0.6,2.2c0.1,0.4,0,0.9-0.3,1.2
		c-0.4,0.3-1,0.5-1.5,0.5c-0.7,0.1-1.7,0.1-2.9,0.1s-2.2,0-3-0.1c-0.6,0-1.1-0.1-1.7-0.2c-0.3-0.1-0.6-0.2-0.8-0.5
		c-0.2-0.2-0.3-0.5-0.4-0.8l-3.3-9.9h-18.5l-3.1,9.6c-0.1,0.3-0.2,0.6-0.4,0.9c-0.2,0.3-0.5,0.5-0.8,0.6c-0.5,0.2-1,0.3-1.6,0.3
		c-0.7,0.1-1.5,0.1-2.6,0.1c-0.9,0-1.8,0-2.7-0.1c-0.5,0-1-0.2-1.4-0.6c-0.3-0.4-0.4-0.8-0.3-1.2c0.1-0.7,0.3-1.4,0.6-2.1l15.2-43.7
		c0.1-0.4,0.3-0.7,0.5-1c0.3-0.3,0.6-0.5,1-0.6c0.6-0.2,1.2-0.3,1.9-0.3c0.8,0,1.8-0.1,3.1-0.1c1.5,0,2.7,0,3.6,0.1
		c0.7,0,1.4,0.1,2.1,0.3c0.4,0.1,0.8,0.3,1.1,0.6c0.2,0.3,0.4,0.7,0.5,1.1L467.6,67.5z M445,31.4L445,31.4l-7,21h14L445,31.4z"/>
	<path id="path33" inkscape:connector-curvature="0" class="st0" d="M507.7,63.8c0,0.7,0,1.2-0.1,1.6c0,0.4-0.1,0.8-0.2,1.1
		c-0.1,0.3-0.2,0.6-0.3,0.8c-0.2,0.3-0.4,0.5-0.6,0.8c-0.5,0.4-1,0.8-1.6,1.1c-0.9,0.5-1.9,1-2.9,1.3c-1.3,0.4-2.6,0.8-4,1
		c-1.6,0.3-3.2,0.4-4.8,0.4c-3.1,0-6.2-0.5-9.1-1.6c-2.6-1-5-2.6-6.9-4.7c-2-2.2-3.5-4.9-4.4-7.8c-1.1-3.5-1.6-7.1-1.5-10.8
		c-0.1-3.8,0.5-7.6,1.7-11.2c1-3,2.6-5.8,4.7-8.2c2-2.2,4.5-3.9,7.2-5c2.9-1.2,6.1-1.7,9.3-1.7c1.3,0,2.7,0.1,4,0.3
		c1.2,0.2,2.4,0.5,3.5,0.9c1,0.3,2,0.8,2.9,1.3c0.7,0.3,1.3,0.8,1.8,1.2c0.3,0.3,0.5,0.5,0.7,0.9c0.1,0.3,0.2,0.6,0.3,0.9
		c0.1,0.4,0.1,0.8,0.2,1.3c0,0.5,0.1,1.1,0.1,1.8c0,0.7,0,1.4-0.1,1.9c0,0.4-0.1,0.9-0.3,1.3c-0.1,0.3-0.3,0.5-0.5,0.7
		c-0.2,0.1-0.4,0.2-0.6,0.2c-0.5-0.1-1-0.3-1.5-0.7c-0.7-0.5-1.5-1.1-2.3-1.5c-1-0.6-2.2-1.1-3.3-1.5c-1.5-0.5-3-0.7-4.6-0.7
		c-3.6-0.1-7,1.7-9.1,4.7c-1.1,1.6-2,3.5-2.5,5.4c-0.6,2.3-0.9,4.7-0.8,7.1c0,2.5,0.3,5.1,0.9,7.5c0.5,1.9,1.4,3.7,2.5,5.2
		c1.1,1.3,2.4,2.4,4,3.1c1.7,0.7,3.5,1,5.3,1c1.6,0,3.1-0.2,4.6-0.6c1.2-0.4,2.3-0.8,3.3-1.4c0.9-0.5,1.7-1,2.3-1.4
		c0.4-0.3,0.9-0.5,1.4-0.6c0.2,0,0.4,0,0.6,0.2c0.2,0.2,0.3,0.4,0.4,0.6c0.1,0.4,0.2,0.8,0.2,1.3C507.7,62.1,507.7,62.9,507.7,63.8
		L507.7,63.8z"/>
	<path id="path35" inkscape:connector-curvature="0" class="st0" d="M553.4,69.9c0,0.3-0.1,0.5-0.3,0.7c-0.2,0.2-0.5,0.4-0.8,0.5
		c-0.5,0.1-1,0.2-1.5,0.3c-0.8,0.1-1.6,0.1-2.4,0.1c-0.8,0-1.6,0-2.5-0.1c-0.5,0-1-0.1-1.5-0.3c-0.3-0.1-0.6-0.3-0.8-0.5
		c-0.2-0.2-0.3-0.4-0.3-0.7V50h-18.5v19.9c0,0.2-0.1,0.5-0.2,0.7c-0.2,0.2-0.5,0.4-0.8,0.5c-0.5,0.1-1,0.2-1.5,0.3
		c-1.6,0.2-3.2,0.2-4.9,0c-0.5,0-1-0.1-1.5-0.3c-0.3-0.1-0.6-0.3-0.8-0.5c-0.2-0.2-0.3-0.4-0.3-0.7V23.3c0-0.3,0.1-0.5,0.3-0.7
		c0.2-0.2,0.5-0.4,0.8-0.5c0.5-0.2,1-0.3,1.5-0.3c1.6-0.2,3.2-0.2,4.9,0c0.5,0.1,1,0.2,1.5,0.3c0.3,0.1,0.6,0.3,0.8,0.5
		c0.2,0.2,0.2,0.4,0.2,0.7v18.1h18.4V23.3c0-0.3,0.1-0.5,0.3-0.7c0.2-0.2,0.5-0.4,0.8-0.5c0.5-0.2,1-0.3,1.5-0.3
		c0.8-0.1,1.6-0.1,2.5-0.1c0.8,0,1.6,0,2.4,0.1c0.5,0.1,1,0.2,1.5,0.3c0.3,0.1,0.6,0.3,0.8,0.5c0.2,0.2,0.3,0.4,0.3,0.7L553.4,69.9z
		"/>
	<path id="path37" inkscape:connector-curvature="0" class="st0" d="M593.3,67.3c0,0.6,0,1.2-0.1,1.8c0,0.4-0.1,0.8-0.3,1.2
		c-0.1,0.3-0.3,0.5-0.5,0.7c-0.2,0.1-0.4,0.2-0.6,0.2h-24.7c-0.8,0-1.5-0.2-2.1-0.7c-0.6-0.6-1-1.5-0.9-2.4v-43
		c-0.1-0.9,0.2-1.8,0.9-2.4c0.6-0.5,1.3-0.8,2.1-0.7h24.6c0.2,0,0.4,0.1,0.6,0.2c0.2,0.2,0.4,0.4,0.5,0.7c0.1,0.4,0.2,0.8,0.3,1.2
		c0.1,0.6,0.1,1.3,0.1,1.9c0,0.6,0,1.2-0.1,1.8c0,0.4-0.1,0.8-0.3,1.2c-0.1,0.3-0.3,0.5-0.5,0.7c-0.2,0.1-0.4,0.2-0.6,0.2h-17.6v12
		H589c0.2,0,0.5,0.1,0.6,0.2c0.2,0.2,0.4,0.4,0.5,0.7c0.1,0.4,0.2,0.8,0.3,1.2c0.1,1.2,0.1,2.4,0,3.6c0,0.4-0.1,0.8-0.3,1.2
		c-0.1,0.3-0.3,0.5-0.5,0.6c-0.2,0.1-0.4,0.2-0.6,0.2h-14.9v13.9h17.8c0.2,0,0.5,0.1,0.6,0.2c0.2,0.2,0.4,0.4,0.5,0.7
		c0.1,0.4,0.2,0.8,0.3,1.2C593.3,66.1,593.3,66.7,593.3,67.3L593.3,67.3z"/>
	<path id="path39" inkscape:connector-curvature="0" class="st0" d="M424.8,148.9l-10.1,17.7c-5.6-5.2-13-7.9-22.4-7.9
		c-9,0-16.1,3-21.3,9s-7.8,14.3-7.8,24.8c0,21.3,10.1,31.9,30.4,31.9c8.6,0.1,16.8-3,23.2-8.7l8.7,18.6c-6.9,4.3-12.9,7-18,8.1
		c-6,1.2-12.1,1.8-18.2,1.7c-15.7,0-28-4.6-37.1-13.7c-9.1-9.1-13.6-21.8-13.6-38c0-16,5-28.9,14.9-38.7s23.4-14.8,40.5-14.8
		C405.8,138.9,416,142.2,424.8,148.9L424.8,148.9z"/>
	<path id="path41" inkscape:connector-curvature="0" class="st0" d="M535,198.8h-72.5c0.4,8.1,3.2,14.4,8.3,18.9
		c5.1,4.5,12,6.7,20.6,6.7c10.8,0,19-2.8,24.6-8.4l9.2,18.1c-8.3,6.8-20.8,10.1-37.3,10.1c-15.5,0-27.7-4.5-36.7-13.6
		s-13.5-21.7-13.5-37.9c0-16,4.9-28.9,14.8-38.8c9.3-9.7,22.2-15,35.6-14.9c14.7,0,26.5,4.4,35.4,13.2s13.4,20,13.4,33.5
		C536.8,190.1,536.1,194.5,535,198.8L535,198.8z M463.4,181h49.8c-1.6-14.8-9.9-22.3-24.6-22.3C475.1,158.7,466.7,166.1,463.4,181z"
		/>
	<path id="path43" inkscape:connector-curvature="0" class="st0" d="M560,103l23.7-5.7v114c0,12.5,3.7,20,11.2,22.4
		c-3.7,6.9-9.9,10.4-18.8,10.4c-10.7,0-16.1-7.5-16.1-22.4V103z"/>
	<path id="path45" inkscape:connector-curvature="0" class="st0" d="M619.5,242.3v-82h-13v-19.4h36.9v101.4H619.5z M631.7,101.5
		c7.6,0,13.7,6.2,13.7,13.8s-6.2,13.7-13.8,13.7c-7.6,0-13.7-6.2-13.7-13.8c0-3.6,1.5-7.1,4-9.7
		C624.6,102.9,628.1,101.4,631.7,101.5z"/>
	<path id="path47" inkscape:connector-curvature="0" class="st0" d="M736.2,242.3l-26-33.1l-23.5,33.1h-28l38.9-51.9l-35.8-49.5
		h27.2l21.4,31l23.9-31h27l-39,49.5l42.5,51.9H736.2z"/>
	<path id="path49" inkscape:connector-curvature="0" class="st0" d="M751.7,106.8c0,0.2,0,0.4,0,0.6c0,0.1-0.1,0.3-0.1,0.4
		c0,0.1-0.1,0.2-0.2,0.2c-0.1,0-0.2,0.1-0.3,0.1h-6.4v19.7c0,0.1,0,0.2-0.1,0.3c-0.1,0.1-0.2,0.1-0.3,0.2c-0.2,0.1-0.3,0.1-0.5,0.1
		c-0.5,0.1-1,0.1-1.5,0c-0.2,0-0.3-0.1-0.5-0.1c-0.1,0-0.2-0.1-0.3-0.2c0-0.1-0.1-0.2-0.1-0.3v-19.7h-6.4c-0.1,0-0.2,0-0.3-0.1
		c-0.1-0.1-0.1-0.1-0.2-0.2c-0.1-0.1-0.1-0.3-0.1-0.4c0-0.2,0-0.4,0-0.6c0-0.2,0-0.4,0-0.6c0-0.1,0.1-0.3,0.1-0.4
		c0-0.1,0.1-0.2,0.2-0.2c0.1,0,0.2-0.1,0.3-0.1h15.8c0.1,0,0.2,0,0.3,0.1c0.1,0.1,0.1,0.1,0.2,0.2c0.1,0.1,0.1,0.3,0.1,0.4
		C751.7,106.4,751.7,106.6,751.7,106.8z"/>
	<path id="path51" inkscape:connector-curvature="0" class="st0" d="M779.7,127.8c0,0.1,0,0.2-0.1,0.3c-0.1,0.1-0.2,0.1-0.3,0.2
		c-0.2,0-0.3,0.1-0.5,0.1c-0.2,0-0.5,0-0.7,0c-0.2,0-0.5,0-0.7,0c-0.2,0-0.3-0.1-0.5-0.1c-0.1,0-0.2-0.1-0.2-0.2
		c0-0.1-0.1-0.2-0.1-0.3V108l0,0l-8,19.9c0,0.1-0.1,0.2-0.2,0.2c-0.1,0.1-0.2,0.1-0.3,0.1c-0.1,0-0.3,0.1-0.4,0.1
		c-0.2,0-0.4,0-0.6,0c-0.2,0-0.4,0-0.6,0c-0.1,0-0.3-0.1-0.4-0.1c-0.1,0-0.2-0.1-0.3-0.1c-0.1-0.1-0.1-0.1-0.1-0.2l-7.7-19.9l0,0
		v19.8c0,0.1,0,0.2-0.1,0.3c-0.1,0.1-0.2,0.1-0.3,0.2c-0.2,0.1-0.3,0.1-0.5,0.1c-0.2,0-0.5,0-0.7,0c-0.2,0-0.5,0-0.7,0
		c-0.2,0-0.3-0.1-0.5-0.1c-0.1,0-0.2-0.1-0.2-0.2c0-0.1-0.1-0.2-0.1-0.3v-20.9c0-0.4,0.1-0.8,0.4-1.1c0.2-0.2,0.6-0.3,0.9-0.3h1.9
		c0.3,0,0.7,0,1,0.1c0.3,0.1,0.5,0.2,0.8,0.3c0.2,0.2,0.4,0.4,0.5,0.6c0.2,0.3,0.3,0.5,0.4,0.8l6.5,16.5h0.1l6.8-16.4
		c0.1-0.3,0.3-0.6,0.4-0.9c0.1-0.2,0.3-0.4,0.5-0.6c0.2-0.1,0.4-0.3,0.6-0.3c0.3-0.1,0.5-0.1,0.8-0.1h1.8c0.2,0,0.3,0,0.5,0.1
		c0.2,0,0.3,0.1,0.4,0.3c0.1,0.1,0.2,0.3,0.3,0.4c0.1,0.2,0.1,0.4,0.1,0.6L779.7,127.8z"/>
</g>
</svg>
